# xmcd
#
# Track frame offsets: 
#        150
#        93532
#        156376
#
# Disc length: 2766 seconds
#
# Revision: 1
# Processed by: cddbd v1.5.2PL0 Copyright (c) Steve Scherf et al.
# Submitted via: ExactAudioCopy v1.0b3
#
DISCID=1f0acc03
DTITLE=Van Cliburn - [Disk 10] Brahms Concerto No.1
DYEAR=1964
DGENRE=Classical
TTITLE0=Brahms Concerto No.1 - I
TTITLE1=Brahms Concerto No.1 - II
TTITLE2=Brahms Concerto No.1 - III
EXTD=
EXTT0=
EXTT1=
EXTT2=
PLAYORDER=
